<svg width="355" height="315" viewBox="0 0 355 315" fill="none" xmlns="http://www.w3.org/2000/svg">
<rect x="13" y="7" width="334" height="298" rx="149" fill="white"/>
<path d="M177.5 0C79.6265 0 0 70.6545 0 157.5C0 244.345 79.6265 315 177.5 315C275.373 315 355 244.345 355 157.5C355 70.6545 275.373 0 177.5 0ZM177.5 304.5C86.1526 304.5 11.8333 238.555 11.8333 157.5C11.8333 76.4452 86.1526 10.5 177.5 10.5C268.847 10.5 343.167 76.4452 343.167 157.5C343.167 238.555 268.847 304.5 177.5 304.5Z" fill="#008916"/>
<path d="M105.951 64H102V48.7695L97.2832 50.2324V47.0195L105.527 44.0664H105.951V64ZM122.029 64H118.078V48.7695L113.361 50.2324V47.0195L121.605 44.0664H122.029V64Z" fill="#008916"/>
<path d="M172.951 43H169V27.7695L164.283 29.2324V26.0195L172.527 23.0664H172.951V43ZM193.076 43H179.432V40.293L185.871 33.4297C186.755 32.4635 187.407 31.6204 187.826 30.9004C188.255 30.1803 188.469 29.4967 188.469 28.8496C188.469 27.9655 188.245 27.2728 187.799 26.7715C187.352 26.2611 186.714 26.0059 185.885 26.0059C184.992 26.0059 184.285 26.3158 183.766 26.9355C183.255 27.5462 183 28.3529 183 29.3555H179.035C179.035 28.1432 179.322 27.0358 179.896 26.0332C180.48 25.0306 181.3 24.2467 182.357 23.6816C183.415 23.1074 184.613 22.8203 185.953 22.8203C188.004 22.8203 189.594 23.3125 190.725 24.2969C191.864 25.2812 192.434 26.6712 192.434 28.4668C192.434 29.4512 192.178 30.4538 191.668 31.4746C191.158 32.4954 190.283 33.6849 189.043 35.043L184.518 39.8145H193.076V43Z" fill="#008916"/>
<path d="M73.3281 210.385C73.3281 211.351 73.0866 212.208 72.6035 212.955C72.1204 213.702 71.4551 214.299 70.6074 214.746C71.5736 215.211 72.3392 215.854 72.9043 216.674C73.4694 217.485 73.752 218.442 73.752 219.545C73.752 221.313 73.1504 222.712 71.9473 223.742C70.7441 224.763 69.1081 225.273 67.0391 225.273C64.9701 225.273 63.3294 224.758 62.1172 223.729C60.9049 222.699 60.2988 221.304 60.2988 219.545C60.2988 218.442 60.5814 217.48 61.1465 216.66C61.7116 215.84 62.4727 215.202 63.4297 214.746C62.582 214.299 61.9167 213.702 61.4336 212.955C60.9596 212.208 60.7227 211.351 60.7227 210.385C60.7227 208.689 61.2878 207.34 62.418 206.338C63.5482 205.326 65.084 204.82 67.0254 204.82C68.9577 204.82 70.4889 205.322 71.6191 206.324C72.7585 207.318 73.3281 208.671 73.3281 210.385ZM69.7871 219.258C69.7871 218.392 69.5365 217.699 69.0352 217.18C68.5339 216.66 67.8594 216.4 67.0117 216.4C66.1732 216.4 65.5033 216.66 65.002 217.18C64.5007 217.69 64.25 218.383 64.25 219.258C64.25 220.105 64.4961 220.789 64.9883 221.309C65.4805 221.828 66.1641 222.088 67.0391 222.088C67.8958 222.088 68.5658 221.837 69.0488 221.336C69.541 220.835 69.7871 220.142 69.7871 219.258ZM69.377 210.576C69.377 209.801 69.1719 209.182 68.7617 208.717C68.3516 208.243 67.7728 208.006 67.0254 208.006C66.2871 208.006 65.7129 208.234 65.3027 208.689C64.8926 209.145 64.6875 209.774 64.6875 210.576C64.6875 211.369 64.8926 212.007 65.3027 212.49C65.7129 212.973 66.2917 213.215 67.0391 213.215C67.7865 213.215 68.3607 212.973 68.7617 212.49C69.1719 212.007 69.377 211.369 69.377 210.576Z" fill="#008916"/>
<path d="M36.5957 159.043C35.5658 160.055 34.3626 160.561 32.9863 160.561C31.2272 160.561 29.819 159.959 28.7617 158.756C27.7044 157.544 27.1758 155.912 27.1758 153.861C27.1758 152.558 27.4583 151.364 28.0234 150.279C28.5977 149.186 29.3952 148.338 30.416 147.736C31.4368 147.126 32.5853 146.82 33.8613 146.82C35.1738 146.82 36.3405 147.148 37.3613 147.805C38.3822 148.461 39.1751 149.404 39.7402 150.635C40.3053 151.865 40.5924 153.273 40.6016 154.859V156.322C40.6016 159.64 39.7767 162.247 38.127 164.143C36.4772 166.038 34.1393 167.05 31.1133 167.178L30.1426 167.191V163.896L31.0176 163.883C34.4538 163.728 36.3132 162.115 36.5957 159.043ZM33.957 157.539C34.5951 157.539 35.1419 157.375 35.5977 157.047C36.0625 156.719 36.4134 156.322 36.6504 155.857V154.23C36.6504 152.891 36.3952 151.852 35.8848 151.113C35.3743 150.375 34.6908 150.006 33.834 150.006C33.041 150.006 32.3893 150.37 31.8789 151.1C31.3685 151.82 31.1133 152.727 31.1133 153.82C31.1133 154.905 31.3594 155.798 31.8516 156.5C32.3529 157.193 33.0547 157.539 33.957 157.539Z" fill="#008916"/>
<path d="M61.9512 104H58V88.7695L53.2832 90.2324V87.0195L61.5273 84.0664H61.9512V104ZM81.8301 95.7695C81.8301 98.5221 81.2604 100.628 80.1211 102.086C78.9818 103.544 77.3138 104.273 75.1172 104.273C72.9479 104.273 71.2891 103.558 70.1406 102.127C68.9922 100.696 68.4043 98.6452 68.377 95.9746V92.3105C68.377 89.5306 68.9512 87.4206 70.0996 85.9805C71.2572 84.5404 72.9206 83.8203 75.0898 83.8203C77.2591 83.8203 78.918 84.5358 80.0664 85.9668C81.2148 87.3887 81.8027 89.4349 81.8301 92.1055V95.7695ZM77.8789 91.75C77.8789 90.1003 77.651 88.9017 77.1953 88.1543C76.7487 87.3978 76.0469 87.0195 75.0898 87.0195C74.1602 87.0195 73.472 87.3796 73.0254 88.0996C72.5879 88.8105 72.3555 89.9271 72.3281 91.4492V96.2891C72.3281 97.9115 72.5469 99.1191 72.9844 99.9121C73.431 100.696 74.1419 101.088 75.1172 101.088C76.0833 101.088 76.7806 100.71 77.209 99.9531C77.6374 99.1966 77.8607 98.0391 77.8789 96.4805V91.75Z" fill="#008916"/>
<path d="M117.889 258.309L110.191 276H106.021L113.732 259.293H103.834V256.094H117.889V258.309Z" fill="#008916"/>
<path d="M181.072 265.889V269.143H180.689C178.903 269.17 177.463 269.635 176.369 270.537C175.285 271.439 174.633 272.693 174.414 274.297C175.471 273.221 176.807 272.684 178.42 272.684C180.152 272.684 181.528 273.303 182.549 274.543C183.57 275.783 184.08 277.414 184.08 279.438C184.08 280.732 183.798 281.903 183.232 282.951C182.676 283.999 181.883 284.815 180.854 285.398C179.833 285.982 178.675 286.273 177.381 286.273C175.285 286.273 173.589 285.544 172.295 284.086C171.01 282.628 170.367 280.682 170.367 278.248V276.826C170.367 274.666 170.773 272.761 171.584 271.111C172.404 269.452 173.576 268.172 175.098 267.27C176.629 266.358 178.402 265.898 180.416 265.889H181.072ZM177.217 275.855C176.579 275.855 176 276.024 175.48 276.361C174.961 276.689 174.578 277.127 174.332 277.674V278.877C174.332 280.199 174.592 281.233 175.111 281.98C175.631 282.719 176.36 283.088 177.299 283.088C178.146 283.088 178.83 282.755 179.35 282.09C179.878 281.415 180.143 280.545 180.143 279.479C180.143 278.394 179.878 277.519 179.35 276.854C178.821 276.188 178.11 275.855 177.217 275.855Z" fill="#008916"/>
<path d="M233.941 266.211L235.09 256.094H246.246V259.389H238.33L237.838 263.668C238.777 263.167 239.775 262.916 240.832 262.916C242.728 262.916 244.214 263.504 245.289 264.68C246.365 265.855 246.902 267.501 246.902 269.615C246.902 270.9 246.629 272.053 246.082 273.074C245.544 274.086 244.77 274.874 243.758 275.439C242.746 275.995 241.552 276.273 240.176 276.273C238.973 276.273 237.856 276.032 236.826 275.549C235.796 275.057 234.98 274.368 234.379 273.484C233.786 272.6 233.472 271.593 233.436 270.463H237.346C237.428 271.292 237.715 271.939 238.207 272.404C238.708 272.86 239.36 273.088 240.162 273.088C241.055 273.088 241.743 272.769 242.227 272.131C242.71 271.484 242.951 270.572 242.951 269.396C242.951 268.266 242.673 267.4 242.117 266.799C241.561 266.197 240.773 265.896 239.752 265.896C238.813 265.896 238.052 266.143 237.469 266.635L237.086 266.99L233.941 266.211Z" fill="#008916"/>
<path d="M295.043 224.508H297.299V227.693H295.043V232H291.092V227.693H282.93L282.752 225.205L291.051 212.094H295.043V224.508ZM286.689 224.508H291.092V217.48L290.832 217.932L286.689 224.508Z" fill="#008916"/>
<path d="M320.373 155.297H322.479C323.481 155.297 324.224 155.046 324.707 154.545C325.19 154.044 325.432 153.378 325.432 152.549C325.432 151.747 325.19 151.122 324.707 150.676C324.233 150.229 323.577 150.006 322.738 150.006C321.982 150.006 321.348 150.215 320.838 150.635C320.327 151.045 320.072 151.583 320.072 152.248H316.121C316.121 151.209 316.399 150.279 316.955 149.459C317.52 148.63 318.304 147.982 319.307 147.518C320.318 147.053 321.43 146.82 322.643 146.82C324.748 146.82 326.398 147.326 327.592 148.338C328.786 149.34 329.383 150.726 329.383 152.494C329.383 153.406 329.105 154.244 328.549 155.01C327.993 155.775 327.264 156.363 326.361 156.773C327.482 157.174 328.316 157.776 328.863 158.578C329.419 159.38 329.697 160.328 329.697 161.422C329.697 163.19 329.05 164.607 327.756 165.674C326.471 166.74 324.766 167.273 322.643 167.273C320.656 167.273 319.029 166.749 317.762 165.701C316.504 164.653 315.875 163.268 315.875 161.545H319.826C319.826 162.292 320.104 162.903 320.66 163.377C321.225 163.851 321.918 164.088 322.738 164.088C323.677 164.088 324.411 163.842 324.939 163.35C325.477 162.848 325.746 162.188 325.746 161.367C325.746 159.38 324.652 158.387 322.465 158.387H320.373V155.297Z" fill="#008916"/>
<path d="M300.998 104H287.354V101.293L293.793 94.4297C294.677 93.4635 295.329 92.6204 295.748 91.9004C296.176 91.1803 296.391 90.4967 296.391 89.8496C296.391 88.9655 296.167 88.2728 295.721 87.7715C295.274 87.2611 294.636 87.0059 293.807 87.0059C292.913 87.0059 292.207 87.3158 291.688 87.9355C291.177 88.5462 290.922 89.3529 290.922 90.3555H286.957C286.957 89.1432 287.244 88.0358 287.818 87.0332C288.402 86.0306 289.222 85.2467 290.279 84.6816C291.337 84.1074 292.535 83.8203 293.875 83.8203C295.926 83.8203 297.516 84.3125 298.646 85.2969C299.786 86.2812 300.355 87.6712 300.355 89.4668C300.355 90.4512 300.1 91.4538 299.59 92.4746C299.079 93.4954 298.204 94.6849 296.965 96.043L292.439 100.814H300.998V104Z" fill="#008916"/>
<path d="M249.951 69H246V53.7695L241.283 55.2324V52.0195L249.527 49.0664H249.951V69Z" fill="#008916"/>
<circle cx="179" cy="158" r="10" fill="#008916"/>
<path d="M179.314 54.5717C178.525 53.799 177.258 53.8125 176.486 54.6018L163.894 67.4644C163.121 68.2537 163.135 69.52 163.924 70.2926C164.713 71.0653 165.98 71.0519 166.752 70.2626L177.945 58.8291L189.378 70.0219C190.168 70.7946 191.434 70.7811 192.207 69.9918C192.979 69.2025 192.966 67.9362 192.177 67.1635L179.314 54.5717ZM181 157.979L179.915 55.9796L175.915 56.0221L177 158.021L181 157.979Z" fill="#008916"/>
<path d="M106.586 156.586C105.805 157.367 105.805 158.633 106.586 159.414L119.314 172.142C120.095 172.923 121.361 172.923 122.142 172.142C122.923 171.361 122.923 170.095 122.142 169.314L110.828 158L122.142 146.686C122.923 145.905 122.923 144.639 122.142 143.858C121.361 143.077 120.095 143.077 119.314 143.858L106.586 156.586ZM179 156H108V160H179V156Z" fill="#008916"/>
</svg>
