<svg width="322" height="299" viewBox="0 0 322 299" fill="none" xmlns="http://www.w3.org/2000/svg">
<rect y="4" width="321" height="291" rx="145.5" fill="white"/>
<g clip-path="url(#clip0)">
<path d="M160.536 0C72.0165 0 0 67.0415 0 149.446C0 231.851 72.0165 298.892 160.536 298.892C249.056 298.892 321.072 231.851 321.072 149.446C321.072 67.0415 249.056 0 160.536 0ZM160.536 288.929C77.9189 288.929 10.7024 226.356 10.7024 149.446C10.7024 72.5361 77.9189 9.96307 160.536 9.96307C243.153 9.96307 310.37 72.5361 310.37 149.446C310.37 226.356 243.153 288.929 160.536 288.929Z" fill="#0500FA"/>
<path d="M89.9512 64H86V48.7695L81.2832 50.2324V47.0195L89.5273 44.0664H89.9512V64ZM106.029 64H102.078V48.7695L97.3613 50.2324V47.0195L105.605 44.0664H106.029V64Z" fill="#0500FA"/>
<path d="M150.061 41.9716H146.11V26.7411L141.393 28.204V24.9911L149.637 22.038H150.061V41.9716ZM170.186 41.9716H156.541V39.2646L162.981 32.4013C163.865 31.4351 164.517 30.592 164.936 29.872C165.364 29.1519 165.578 28.4683 165.578 27.8212C165.578 26.9371 165.355 26.2444 164.908 25.7431C164.462 25.2327 163.824 24.9774 162.994 24.9774C162.101 24.9774 161.395 25.2873 160.875 25.9071C160.365 26.5178 160.11 27.3245 160.11 28.3271H156.145C156.145 27.1148 156.432 26.0074 157.006 25.0048C157.589 24.0022 158.41 23.2183 159.467 22.6532C160.524 22.079 161.723 21.7919 163.063 21.7919C165.114 21.7919 166.704 22.2841 167.834 23.2685C168.974 24.2528 169.543 25.6428 169.543 27.4384C169.543 28.4228 169.288 29.4254 168.778 30.4462C168.267 31.467 167.392 32.6565 166.153 34.0146L161.627 38.786H170.186V41.9716Z" fill="#0500FA"/>
<path d="M67.6895 200.209C67.6895 201.175 67.4479 202.032 66.9648 202.779C66.4818 203.526 65.8164 204.123 64.9688 204.57C65.9349 205.035 66.7005 205.677 67.2656 206.498C67.8307 207.309 68.1133 208.266 68.1133 209.369C68.1133 211.137 67.5117 212.536 66.3086 213.566C65.1055 214.587 63.4694 215.097 61.4004 215.097C59.3314 215.097 57.6908 214.582 56.4785 213.552C55.2663 212.522 54.6602 211.128 54.6602 209.369C54.6602 208.266 54.9427 207.304 55.5078 206.484C56.0729 205.664 56.834 205.026 57.791 204.57C56.9434 204.123 56.278 203.526 55.7949 202.779C55.321 202.032 55.084 201.175 55.084 200.209C55.084 198.513 55.6491 197.164 56.7793 196.162C57.9095 195.15 59.4453 194.644 61.3867 194.644C63.319 194.644 64.8503 195.145 65.9805 196.148C67.1198 197.142 67.6895 198.495 67.6895 200.209ZM64.1484 209.082C64.1484 208.216 63.8978 207.523 63.3965 207.004C62.8952 206.484 62.2207 206.224 61.373 206.224C60.5345 206.224 59.8646 206.484 59.3633 207.004C58.862 207.514 58.6113 208.207 58.6113 209.082C58.6113 209.929 58.8574 210.613 59.3496 211.132C59.8418 211.652 60.5254 211.912 61.4004 211.912C62.2572 211.912 62.9271 211.661 63.4102 211.16C63.9023 210.659 64.1484 209.966 64.1484 209.082ZM63.7383 200.4C63.7383 199.625 63.5332 199.006 63.123 198.541C62.7129 198.067 62.1341 197.83 61.3867 197.83C60.6484 197.83 60.0742 198.058 59.6641 198.513C59.2539 198.969 59.0488 199.598 59.0488 200.4C59.0488 201.193 59.2539 201.831 59.6641 202.314C60.0742 202.797 60.653 203.039 61.4004 203.039C62.1478 203.039 62.722 202.797 63.123 202.314C63.5332 201.831 63.7383 201.193 63.7383 200.4Z" fill="#0500FA"/>
<path d="M34.1108 151.833C33.0809 152.844 31.8778 153.35 30.5015 153.35C28.7424 153.35 27.3341 152.749 26.2769 151.546C25.2196 150.333 24.6909 148.702 24.6909 146.651C24.6909 145.348 24.9735 144.154 25.5386 143.069C26.1128 141.975 26.9103 141.128 27.9312 140.526C28.952 139.915 30.1004 139.61 31.3765 139.61C32.689 139.61 33.8556 139.938 34.8765 140.594C35.8973 141.251 36.6903 142.194 37.2554 143.425C37.8205 144.655 38.1076 146.063 38.1167 147.649V149.112C38.1167 152.43 37.2918 155.037 35.6421 156.932C33.9924 158.828 31.6545 159.84 28.6284 159.968L27.6577 159.981V156.686L28.5327 156.673C31.9689 156.518 33.8283 154.904 34.1108 151.833ZM31.4722 150.329C32.1102 150.329 32.6571 150.165 33.1128 149.837C33.5776 149.509 33.9285 149.112 34.1655 148.647V147.02C34.1655 145.68 33.9103 144.641 33.3999 143.903C32.8895 143.165 32.2059 142.796 31.3491 142.796C30.5562 142.796 29.9045 143.16 29.394 143.889C28.8836 144.609 28.6284 145.516 28.6284 146.61C28.6284 147.695 28.8745 148.588 29.3667 149.29C29.868 149.982 30.5698 150.329 31.4722 150.329Z" fill="#0500FA"/>
<path d="M53.9512 105H50V89.7695L45.2832 91.2324V88.0195L53.5273 85.0664H53.9512V105ZM73.8301 96.7695C73.8301 99.5221 73.2604 101.628 72.1211 103.086C70.9818 104.544 69.3138 105.273 67.1172 105.273C64.9479 105.273 63.2891 104.558 62.1406 103.127C60.9922 101.696 60.4043 99.6452 60.377 96.9746V93.3105C60.377 90.5306 60.9512 88.4206 62.0996 86.9805C63.2572 85.5404 64.9206 84.8203 67.0898 84.8203C69.2591 84.8203 70.918 85.5358 72.0664 86.9668C73.2148 88.3887 73.8027 90.4349 73.8301 93.1055V96.7695ZM69.8789 92.75C69.8789 91.1003 69.651 89.9017 69.1953 89.1543C68.7487 88.3978 68.0469 88.0195 67.0898 88.0195C66.1602 88.0195 65.472 88.3796 65.0254 89.0996C64.5879 89.8105 64.3555 90.9271 64.3281 92.4492V97.2891C64.3281 98.9115 64.5469 100.119 64.9844 100.912C65.431 101.696 66.1419 102.088 67.1172 102.088C68.0833 102.088 68.7806 101.71 69.209 100.953C69.6374 100.197 69.8607 99.0391 69.8789 97.4805V92.75Z" fill="#0500FA"/>
<path d="M108.045 245.525L100.348 263.216H96.1776L103.889 246.509H93.9901V243.31H108.045V245.525Z" fill="#0500FA"/>
<path d="M164.921 252.593V255.847H164.538C162.752 255.874 161.311 256.339 160.218 257.242C159.133 258.144 158.481 259.397 158.263 261.001C159.32 259.926 160.655 259.388 162.268 259.388C164 259.388 165.377 260.008 166.397 261.248C167.418 262.487 167.929 264.119 167.929 266.142C167.929 267.436 167.646 268.608 167.081 269.656C166.525 270.704 165.732 271.52 164.702 272.103C163.681 272.686 162.524 272.978 161.229 272.978C159.133 272.978 157.438 272.249 156.143 270.79C154.858 269.332 154.216 267.386 154.216 264.953V263.531C154.216 261.371 154.621 259.466 155.432 257.816C156.253 256.157 157.424 254.876 158.946 253.974C160.477 253.063 162.25 252.602 164.265 252.593H164.921ZM161.065 262.56C160.427 262.56 159.849 262.729 159.329 263.066C158.809 263.394 158.427 263.832 158.181 264.378V265.582C158.181 266.903 158.44 267.938 158.96 268.685C159.479 269.423 160.209 269.792 161.147 269.792C161.995 269.792 162.679 269.46 163.198 268.794C163.727 268.12 163.991 267.249 163.991 266.183C163.991 265.098 163.727 264.223 163.198 263.558C162.669 262.893 161.959 262.56 161.065 262.56Z" fill="#0500FA"/>
<path d="M211.769 253.427L212.917 243.31H224.074V246.605H216.158L215.665 250.884C216.604 250.383 217.602 250.132 218.66 250.132C220.555 250.132 222.041 250.72 223.117 251.896C224.192 253.071 224.73 254.717 224.73 256.831C224.73 258.116 224.456 259.269 223.91 260.29C223.372 261.302 222.597 262.09 221.585 262.655C220.574 263.211 219.38 263.489 218.003 263.489C216.8 263.489 215.684 263.248 214.654 262.765C213.624 262.273 212.808 261.584 212.206 260.7C211.614 259.816 211.3 258.809 211.263 257.679H215.173C215.255 258.508 215.542 259.155 216.035 259.62C216.536 260.076 217.188 260.304 217.99 260.304C218.883 260.304 219.571 259.985 220.054 259.347C220.537 258.7 220.779 257.788 220.779 256.612C220.779 255.482 220.501 254.616 219.945 254.015C219.389 253.413 218.6 253.112 217.579 253.112C216.641 253.112 215.88 253.359 215.296 253.851L214.913 254.206L211.769 253.427Z" fill="#0500FA"/>
<path d="M268.092 213.974H270.348V217.159H268.092V221.466H264.141V217.159H255.979L255.801 214.671L264.1 201.56H268.092V213.974ZM259.738 213.974H264.141V206.946L263.881 207.398L259.738 213.974Z" fill="#0500FA"/>
<path d="M290.268 148.087H292.374C293.376 148.087 294.119 147.836 294.602 147.335C295.085 146.833 295.327 146.168 295.327 145.339C295.327 144.537 295.085 143.912 294.602 143.466C294.128 143.019 293.472 142.796 292.633 142.796C291.877 142.796 291.243 143.005 290.733 143.425C290.223 143.835 289.967 144.372 289.967 145.038H286.016C286.016 143.999 286.294 143.069 286.85 142.249C287.415 141.419 288.199 140.772 289.202 140.307C290.214 139.843 291.325 139.61 292.538 139.61C294.643 139.61 296.293 140.116 297.487 141.128C298.681 142.13 299.278 143.516 299.278 145.284C299.278 146.195 299 147.034 298.444 147.8C297.888 148.565 297.159 149.153 296.256 149.563C297.378 149.964 298.212 150.566 298.758 151.368C299.314 152.17 299.592 153.118 299.592 154.212C299.592 155.98 298.945 157.397 297.651 158.464C296.366 159.53 294.661 160.063 292.538 160.063C290.551 160.063 288.924 159.539 287.657 158.491C286.399 157.443 285.77 156.057 285.77 154.335H289.721C289.721 155.082 289.999 155.693 290.555 156.167C291.12 156.641 291.813 156.878 292.633 156.878C293.572 156.878 294.306 156.632 294.835 156.139C295.372 155.638 295.641 154.977 295.641 154.157C295.641 152.17 294.547 151.176 292.36 151.176H290.268V148.087Z" fill="#0500FA"/>
<path d="M273.665 100.011H260.02V97.3043L266.46 90.4411C267.344 89.4749 267.995 88.6318 268.415 87.9118C268.843 87.1917 269.057 86.5081 269.057 85.861C269.057 84.9769 268.834 84.2842 268.387 83.7829C267.941 83.2724 267.303 83.0172 266.473 83.0172C265.58 83.0172 264.874 83.3271 264.354 83.9469C263.844 84.5576 263.589 85.3642 263.589 86.3668H259.624C259.624 85.1546 259.911 84.0472 260.485 83.0446C261.068 82.042 261.889 81.2581 262.946 80.693C264.003 80.1188 265.202 79.8317 266.542 79.8317C268.592 79.8317 270.183 80.3239 271.313 81.3082C272.452 82.2926 273.022 83.6826 273.022 85.4782C273.022 86.4625 272.767 87.4651 272.256 88.486C271.746 89.5068 270.871 90.6963 269.631 92.0543L265.106 96.8258H273.665V100.011Z" fill="#0500FA"/>
<path d="M227.11 66.8011H223.159V51.5707L218.442 53.0336V49.8207L226.686 46.8676H227.11V66.8011Z" fill="#0500FA"/>
<ellipse cx="161.893" cy="149.92" rx="9.04429" ry="9.48863" fill="#0500FA"/>
<path d="M162.311 51.7074C161.522 50.9351 160.256 50.9492 159.483 51.7389L146.885 64.6082C146.112 65.398 146.125 66.6642 146.914 67.4365C147.702 68.2088 148.969 68.1947 149.742 67.405L160.94 55.9656L172.368 67.1524C173.157 67.9247 174.423 67.9106 175.196 67.1209C175.969 66.3311 175.956 65.0649 175.167 64.2926L162.311 51.7074ZM163.893 149.898L162.911 53.115L158.912 53.1596L159.893 149.943L163.893 149.898Z" fill="#0500FA"/>
<path d="M128.731 100.454C127.664 100.295 126.663 101.072 126.497 102.189L123.779 120.395C123.612 121.512 124.342 122.547 125.41 122.706C126.477 122.866 127.477 122.089 127.644 120.972L130.059 104.789L145.517 107.096C146.584 107.255 147.584 106.479 147.751 105.361C147.918 104.244 147.188 103.209 146.121 103.05L128.731 100.454ZM163.473 148.694L130.009 101.251L126.849 103.704L160.313 151.147L163.473 148.694Z" fill="#0500FA"/>
</g>
<defs>
<clipPath id="clip0">
<rect width="321.072" height="298.892" fill="white"/>
</clipPath>
</defs>
</svg>
